{"title":"Kung Fu Master 2010","uid":5884103,"size":1786549904,"categoryP":"video","categoryS":"movies","magnet":"?xt=urn:btih:b3e036da776a721c3fdce1009b489991247f6338&amp;dn=Kung+Fu+Master+2010&amp;tr=udp%3A%2F%2Ftracker.openbittorrent.com%3A80&amp;tr=udp%3A%2F%2Fopen.demonii.com%3A1337&amp;tr=udp%3A%2F%2Ftracker.coppersurfer.tk%3A6969&amp;tr=udp%3A%2F%2Fexodus.desync.com%3A6969","seeders":0,"leechers":1,"uploader":"DjAligator14","files":-1,"time":1287001816,"description":"Video\nID                               : 0\nFormat                           : MPEG-4 Visual\nFormat profile                   : Advanced Simple@L5\nFormat settings, BVOP            : Yes\nFormat settings, QPel            : No\nFormat settings, GMC             : No warppoints\nFormat settings, Matrix          : Default (MPEG)\nCodec ID                         : XVID\nCodec ID/Hint                    : XviD\nDuration                         : 1h 35mn\nBit rate                         : 2 052 Kbps\nWidth                            : 720 pixels\nHeight                           : 400 pixels\nDisplay aspect ratio             : 16:9\nFrame rate                       : 23.976 fps\nColor space                      : YUV\nChroma subsampling               : 4:2:0\nBit depth                        : 8 bits\nScan type                        : Progressive\nBits/(Pixel*Frame)               : 0.297\nStream size                      : 1.36 GiB (82%)\nWriting library                  : XviD 1.2.1 (UTC 2008-12-04)\n\nAudio\nID                               : 1\nFormat                           : AC-3\nFormat/Info                      : Audio Coding 3\nMode extension                   : CM (complete main)\nCodec ID                         : 2000\nDuration                         : 1h 35mn\nBit rate mode                    : Constant\nBit rate                         : 448 Kbps\nChannel(s)                       : 6 channels\nChannel positions                : Front: L C R, Side: L R, LFE\nSampling rate                    : 48.0 KHz\nBit depth                        : 16 bits\nStream size                      : 305 MiB (18%)\nAlignment                        : Aligned on interleaves\nInterleave, duration             : 64 ms (1.53 video frames)\nInterleave, preload duration     : 192 ms\nTitle                            : VTS_01_1 T81 3_2ch 448Kbps DELAY 0ms\n\nActors: Bryan Leung, Yuen Biao\nLanguage: English Dubbed\nRated: R (Restricted)\nStudio: Lions Gate\nDVD Release Date: October 12, 2010\nRun Time: 95 minutes","torrent":{"xt":"urn:btih:b3e036da776a721c3fdce1009b489991247f6338","amp;dn":"Kung+Fu+Master+2010","amp;tr":["udp%3A%2F%2Ftracker.openbittorrent.com%3A80","udp%3A%2F%2Fopen.demonii.com%3A1337","udp%3A%2F%2Ftracker.coppersurfer.tk%3A6969","udp%3A%2F%2Fexodus.desync.com%3A6969"],"infoHash":"b3e036da776a721c3fdce1009b489991247f6338","infoHashBuffer":{"type":"Buffer","data":[179,224,54,218,119,106,114,28,63,220,225,0,155,72,153,145,36,127,99,56]},"announce":[],"urlList":[]}}